<mxfile host="app.diagrams.net" modified="2024-05-08T21:51:17.918Z" agent="Mozilla/5.0 (Windows NT 10.0; Win64; x64) AppleWebKit/537.36 (KHTML, like Gecko) Chrome/123.0.0.0 Safari/537.36 OPR/109.0.0.0" etag="qE3C1debnipmd1ELhXb_" version="24.3.1" type="github">
  <diagram id="C5RBs43oDa-KdzZeNtuy" name="Page-1">
    <mxGraphModel dx="826" dy="429" grid="1" gridSize="10" guides="1" tooltips="1" connect="1" arrows="1" fold="1" page="1" pageScale="1" pageWidth="827" pageHeight="1169" math="0" shadow="0">
      <root>
        <mxCell id="WIyWlLk6GJQsqaUBKTNV-0" />
        <mxCell id="WIyWlLk6GJQsqaUBKTNV-1" parent="WIyWlLk6GJQsqaUBKTNV-0" />
        <mxCell id="ubiY8n3diiKatzSiCy3y-2" value="" style="edgeStyle=orthogonalEdgeStyle;rounded=0;orthogonalLoop=1;jettySize=auto;html=1;" edge="1" parent="WIyWlLk6GJQsqaUBKTNV-1" source="ubiY8n3diiKatzSiCy3y-0" target="ubiY8n3diiKatzSiCy3y-1">
          <mxGeometry relative="1" as="geometry" />
        </mxCell>
        <mxCell id="ubiY8n3diiKatzSiCy3y-0" value="Start" style="ellipse;whiteSpace=wrap;html=1;" vertex="1" parent="WIyWlLk6GJQsqaUBKTNV-1">
          <mxGeometry x="80" y="50" width="120" height="80" as="geometry" />
        </mxCell>
        <mxCell id="ubiY8n3diiKatzSiCy3y-4" value="" style="edgeStyle=orthogonalEdgeStyle;rounded=0;orthogonalLoop=1;jettySize=auto;html=1;" edge="1" parent="WIyWlLk6GJQsqaUBKTNV-1" source="ubiY8n3diiKatzSiCy3y-1" target="ubiY8n3diiKatzSiCy3y-3">
          <mxGeometry relative="1" as="geometry" />
        </mxCell>
        <mxCell id="ubiY8n3diiKatzSiCy3y-1" value="double r" style="whiteSpace=wrap;html=1;" vertex="1" parent="WIyWlLk6GJQsqaUBKTNV-1">
          <mxGeometry x="80" y="190" width="120" height="60" as="geometry" />
        </mxCell>
        <mxCell id="ubiY8n3diiKatzSiCy3y-6" value="" style="edgeStyle=orthogonalEdgeStyle;rounded=0;orthogonalLoop=1;jettySize=auto;html=1;" edge="1" parent="WIyWlLk6GJQsqaUBKTNV-1" source="ubiY8n3diiKatzSiCy3y-3" target="ubiY8n3diiKatzSiCy3y-5">
          <mxGeometry relative="1" as="geometry" />
        </mxCell>
        <mxCell id="ubiY8n3diiKatzSiCy3y-3" value="double pi = 3,14&lt;div&gt;double directions = 4&lt;/div&gt;&lt;div&gt;double result&lt;/div&gt;" style="whiteSpace=wrap;html=1;" vertex="1" parent="WIyWlLk6GJQsqaUBKTNV-1">
          <mxGeometry x="80" y="330" width="120" height="60" as="geometry" />
        </mxCell>
        <mxCell id="ubiY8n3diiKatzSiCy3y-5" value="" style="rhombus;whiteSpace=wrap;html=1;" vertex="1" parent="WIyWlLk6GJQsqaUBKTNV-1">
          <mxGeometry x="100" y="460" width="80" height="80" as="geometry" />
        </mxCell>
      </root>
    </mxGraphModel>
  </diagram>
</mxfile>
